<svg width="120" height="43" viewBox="0 0 120 43" fill="none" xmlns="http://www.w3.org/2000/svg">
<path d="M14.5958 4.31775C11.8104 5.24619 9.65895 6.76384 8.1413 8.87069C6.64151 10.9597 5.89162 13.5575 5.89162 16.6642C5.89162 17.8427 6.0166 18.7711 6.26657 19.4496C6.32013 19.646 6.4094 19.8424 6.53439 20.0388C6.6058 20.1638 6.64151 20.2977 6.64151 20.4405C4.78463 20.4405 3.36518 20.0656 2.38318 19.3157C1.3119 18.4943 0.776259 17.2088 0.776259 15.4591C0.776259 14.3164 1.00837 13.1558 1.47259 11.9774C1.93681 10.799 2.59743 9.65629 3.45446 8.5493C4.29363 7.47803 5.26671 6.47816 6.37369 5.54972C7.49854 4.60343 8.71265 3.78211 10.016 3.08578C11.3194 2.37159 12.6675 1.82703 14.0601 1.45208C15.4706 1.05928 16.8633 0.862876 18.2381 0.862876C19.5951 0.862876 20.9788 1.12177 22.3893 1.63955L21.1306 30.5373L33.2092 1.63955H41.1099L35.3518 42H27.4511L30.9596 17.3606L20.6485 42H13.1228L14.2208 17.2534L5.06138 42H0.669132L14.5958 4.31775ZM45.6093 42.3214C43.8595 42.3214 42.4758 41.8036 41.4581 40.768C40.3154 39.6253 39.744 37.9559 39.744 35.7598C39.744 34.7242 39.8869 33.528 40.1726 32.171L43.8952 14.5753H51.7959L47.859 33.2155C47.7519 33.769 47.6983 34.2868 47.6983 34.7689C47.6983 36.2687 48.2429 37.0186 49.332 37.0186C50.3319 37.0186 51.2335 36.5633 52.037 35.6527C52.6797 34.8849 53.2422 33.7244 53.7242 32.171L57.4469 14.5753H65.3476L61.4107 33.2155C61.25 33.7511 61.1696 34.3404 61.1696 34.9831C61.1696 35.733 61.3482 36.2597 61.7053 36.5633C62.0624 36.8668 62.6337 37.0186 63.4193 37.0186C64.437 37.0186 65.3476 36.5633 66.1511 35.6527C66.8653 34.8492 67.4366 33.6887 67.8651 32.171H70.1684C69.1864 34.9563 67.999 37.1614 66.6064 38.7862C65.428 40.1253 64.0978 41.0894 62.6159 41.6786C61.5267 42.1071 60.3751 42.3214 59.161 42.3214C57.5898 42.3214 56.3399 41.8839 55.4115 41.0091C54.4831 40.1342 53.9206 38.8397 53.7242 37.1257C52.4744 39.1254 51.0639 40.5538 49.4927 41.4108C48.3678 42.0179 47.0734 42.3214 45.6093 42.3214ZM74.1053 42.3214C72.7841 42.3214 71.6146 42.125 70.5969 41.7322C69.5792 41.3215 68.7222 40.7591 68.0258 40.0449C67.3831 39.3843 66.901 38.6523 66.5796 37.8488C66.2582 37.0275 66.0975 36.1794 66.0975 35.3045C66.0975 34.1082 66.401 33.028 67.0081 32.0639C67.5437 31.2069 68.2133 30.5909 69.0168 30.2159C70.4451 27.6806 71.686 25.1095 72.7394 22.5027C73.7929 19.8959 74.8017 17.0481 75.7658 13.9593L83.8808 12.888C84.095 17.5302 84.2914 21.0922 84.47 23.574C84.6485 26.1272 84.8003 28.002 84.9252 29.1982C85.0324 30.5909 85.0859 31.805 85.0859 32.8406C85.0859 33.769 85.0145 34.4653 84.8717 34.9296C86.5143 33.9654 87.8266 33.0459 88.8086 32.171H91.1119C89.8085 33.6887 88.4605 34.992 87.0678 36.0812C85.693 37.1703 84.2468 38.1523 82.7291 39.0272C81.64 40.1699 80.2741 41.018 78.6315 41.5715C77.2031 42.0714 75.6944 42.3214 74.1053 42.3214ZM72.3645 37.9827C73.7393 37.9827 74.8374 37.6078 75.6587 36.8579C76.6407 35.9651 77.1317 34.6439 77.1317 32.8941C77.1317 32.1621 77.0871 31.2426 76.9978 30.1356L76.8639 28.5019C76.7032 27.0914 76.5425 25.4577 76.3818 23.6008L76.0872 19.9049C75.5694 21.5653 74.9534 23.2169 74.2392 24.8595C73.5251 26.4843 72.6591 28.2876 71.6414 30.2695C72.4806 30.7337 72.9001 31.3676 72.9001 32.171C72.9001 32.8852 72.6859 33.5012 72.2574 34.019C71.7932 34.5903 71.2039 34.876 70.4898 34.876C70.1327 34.876 69.8291 34.8314 69.5792 34.7421C69.3471 34.635 69.1596 34.4386 69.0168 34.1529C69.0168 35.4741 69.2756 36.4472 69.7934 37.0721C70.3112 37.6792 71.1682 37.9827 72.3645 37.9827ZM95.397 42.3214C93.308 42.3214 91.6207 41.6697 90.3352 40.3663C88.8354 38.8308 88.0855 36.5454 88.0855 33.5101C88.0855 32.2246 88.2194 30.8676 88.4872 29.4393C88.7372 28.0109 89.1122 26.6004 89.6121 25.2077C90.7548 22.0653 92.3171 19.5299 94.2989 17.6016C96.5843 15.4055 99.2179 14.3074 102.2 14.3074C103.682 14.3074 104.789 14.5663 105.521 15.0841C106.27 15.584 106.645 16.2536 106.645 17.0928V17.4945L107.235 14.5753H115.135L111.198 33.2155C111.038 33.7511 110.957 34.3404 110.957 34.9831C110.957 36.5543 111.707 37.3399 113.207 37.3399C114.207 37.3399 115.117 36.8311 115.939 35.8134C116.635 34.9563 117.206 33.7422 117.653 32.171H119.956C118.974 34.9563 117.787 37.1614 116.394 38.7862C115.216 40.1253 113.885 41.0894 112.404 41.6786C111.314 42.1071 110.163 42.3214 108.949 42.3214C107.395 42.3214 106.154 41.9018 105.226 41.0626C104.315 40.2056 103.762 38.9469 103.566 37.2864C102.53 38.7505 101.441 39.8932 100.298 40.7145C98.834 41.7857 97.2003 42.3214 95.397 42.3214ZM98.959 37.0186C99.3697 37.0186 99.7982 36.9114 100.245 36.6972C100.709 36.4829 101.155 36.1794 101.584 35.7866C102.548 34.8581 103.191 33.6529 103.512 32.171L106.137 19.7977C106.137 19.6192 106.092 19.4139 106.003 19.1818C105.931 18.9318 105.824 18.6997 105.681 18.4854C105.253 17.9676 104.655 17.7087 103.887 17.7087C103.155 17.7087 102.441 17.9498 101.744 18.4319C101.066 18.9139 100.423 19.5835 99.816 20.4405C98.7447 21.9939 97.8609 24.0204 97.1646 26.52C96.8432 27.627 96.6022 28.7251 96.4415 29.8142C96.2808 30.8855 96.2005 31.8586 96.2005 32.7334C96.2005 34.5546 96.5397 35.7866 97.2182 36.4293C97.4503 36.6793 97.7092 36.84 97.9949 36.9114C98.2805 36.9828 98.6019 37.0186 98.959 37.0186Z" fill="#EFB0BB"/>
</svg>
